<?xml version="1.0" encoding="UTF-8" standalone="no"?>
<!-- Created with Inkscape (http://www.inkscape.org/) -->

<svg
   width="32"
   height="32"
   viewBox="0 0 32 32"
   version="1.1"
   id="svg1"
   inkscape:version="1.4.4 (dcaf3e7d9e, 2026-05-05)"
   sodipodi:docname="pptx_icon.svg"
   xml:space="preserve"
   xmlns:inkscape="http://www.inkscape.org/namespaces/inkscape"
   xmlns:sodipodi="http://sodipodi.sourceforge.net/DTD/sodipodi-0.dtd"
   xmlns="http://www.w3.org/2000/svg"
   xmlns:svg="http://www.w3.org/2000/svg"><sodipodi:namedview
     id="namedview1"
     pagecolor="#ffffff"
     bordercolor="#000000"
     borderopacity="0.25"
     inkscape:showpageshadow="2"
     inkscape:pageopacity="0.0"
     inkscape:pagecheckerboard="0"
     inkscape:deskcolor="#d1d1d1"
     inkscape:document-units="px"
     inkscape:zoom="45.254834"
     inkscape:cx="20.804407"
     inkscape:cy="17.290971"
     inkscape:window-width="2560"
     inkscape:window-height="1414"
     inkscape:window-x="0"
     inkscape:window-y="0"
     inkscape:window-maximized="1"
     inkscape:current-layer="layer1" /><defs
     id="defs1" /><g
     inkscape:label="Layer 1"
     inkscape:groupmode="layer"
     id="layer1"><rect
       style="fill:#d24625;fill-opacity:1"
       id="rect4-1"
       width="16.808098"
       height="20.389334"
       x="7.1068687"
       y="6.6730433"
       ry="1.0936584" /><rect
       style="fill:#03020c;fill-opacity:1;stroke-width:0.945214"
       id="rect4-3"
       width="15.714439"
       height="19.484238"
       x="7.653698"
       y="7.1255913"
       ry="1.0451102" /><text
       xml:space="preserve"
       style="font-style:normal;font-variant:normal;font-weight:normal;font-stretch:normal;font-size:5.33333px;font-family:'Iosevka Nerd Font';-inkscape-font-specification:'Iosevka Nerd Font';writing-mode:lr-tb;direction:ltr;fill:#999999;fill-opacity:1"
       x="11.478917"
       y="18.827711"
       id="text8"><tspan
         sodipodi:role="line"
         id="tspan8"
         x="11.478917"
         y="18.827711" /></text><g
       id="g2" /><g
       id="g3"
       transform="matrix(0.86989983,0,0,0.86989983,2.2211328,1.9483147)"><path
         d="m 15.552748,12.006596 h 0.678263 v 1.076683 c 1.278908,0.0072 2.558965,-0.01321 3.836629,0.0059 0.275152,-0.02632 0.490489,0.187774 0.463022,0.462926 0.02029,2.234716 -0.0048,4.47058 0.01196,6.70654 -0.01196,0.241656 0.02393,0.509631 -0.114847,0.723723 -0.174662,0.126809 -0.401961,0.110061 -0.606579,0.119631 -1.196315,-0.0059 -2.392629,-0.0035 -3.590188,-0.0035 v 1.196315 h -0.744012 c -1.823184,-0.332575 -3.650005,-0.636439 -5.474337,-0.957052 -0.0012,-2.790954 0,-5.582004 0,-8.37181 1.84577,-0.319273 3.691732,-0.64467 5.540086,-0.959349 z"
         fill="#d24625"
         id="path1"
         style="stroke-width:0.0957052" /><path
         d="m 16.231011,13.442174 h 3.947838 v 7.29752 h -3.947838 v -0.957052 h 2.871155 v -0.478526 h -2.871155 v -0.598157 h 2.871155 v -0.478526 h -2.869911 c -0.0012,-0.234478 -0.0012,-0.468956 -0.0023,-0.703433 0.47374,0.147098 1.013231,0.143557 1.436726,-0.141261 0.458236,-0.271516 0.697499,-0.789568 0.73693,-1.306376 -0.525134,-0.0036 -1.050364,-0.0024 -1.57435,-0.0024 -0.0011,-0.520444 0.0059,-1.040793 -0.01072,-1.559994 -0.196196,0.03828 -0.392392,0.07896 -0.587439,0.12078 v -1.192582 z"
         fill="#ffffff"
         id="path2"
         style="fill:#03020c;fill-opacity:1;stroke-width:0.0957052" /><path
         d="m 17.069675,14.263994 c 0.831487,0.03828 1.530039,0.738078 1.57435,1.567172 -0.52523,0.006 -1.050364,0.0036 -1.575594,0.0036 0,-0.523986 -0.0011,-1.047972 0.0012,-1.570809 z"
         fill="#d24625"
         id="path3"
         style="stroke-width:0.0957052" /><path
         d="m 11.931455,15.16726 c 0.649647,0.0311 1.436822,-0.257256 1.975164,0.229692 0.515659,0.62572 0.37928,1.77648 -0.385213,2.15107 -0.271516,0.138676 -0.582558,0.119631 -0.878095,0.109965 -0.0012,0.467807 -0.0023,0.935518 -0.0012,1.403325 a 126.64379,126.64379 0 0 0 -0.711855,-0.05982 c -0.01072,-1.27776 -0.01302,-2.556572 0.0012,-3.834236 z"
         fill="#ffffff"
         id="path4"
         style="fill:#03020c;fill-opacity:1;stroke-width:0.0957052" /><path
         d="m 12.642066,15.814514 c 0.235722,-0.01082 0.527623,-0.05379 0.686781,0.167484 0.13638,0.234477 0.129202,0.543127 0.0155,0.784782 -0.13638,0.246441 -0.445029,0.222515 -0.683144,0.251226 -0.02517,-0.400813 -0.02268,-0.801626 -0.01914,-1.203492 z"
         fill="#d24625"
         id="path5"
         style="stroke-width:0.0957052" /></g></g></svg>
